<?xml version="1.0" standalone="no"?><svg xmlns="http://www.w3.org/2000/svg" viewBox="0 0 1440 320"><path fill="#0099ff" fill-opacity="1" d="M0,128L34.3,112C68.6,96,137,64,206,90.7C274.3,117,343,203,411,224C480,245,549,203,617,197.3C685.7,192,754,224,823,202.7C891.4,181,960,107,1029,96C1097.1,85,1166,139,1234,138.7C1302.9,139,1371,85,1406,58.7L1440,32L1440,0L1405.7,0C1371.4,0,1303,0,1234,0C1165.7,0,1097,0,1029,0C960,0,891,0,823,0C754.3,0,686,0,617,0C548.6,0,480,0,411,0C342.9,0,274,0,206,0C137.1,0,69,0,34,0L0,0Z"></path></svg>